<?xml version="1.0" standalone="no"?>
<!DOCTYPE svg PUBLIC "-//W3C//DTD SVG 20010904//EN"
 "http://www.w3.org/TR/2001/REC-SVG-20010904/DTD/svg10.dtd">
<svg version="1.0" xmlns="http://www.w3.org/2000/svg"
 width="633.000000pt" height="633.000000pt" viewBox="0 0 633.000000 633.000000"
 preserveAspectRatio="xMidYMid meet">
<metadata>
Created by potrace 1.11, written by Peter Selinger 2001-2013
</metadata>
<g transform="translate(0.000000,633.000000) scale(0.100000,-0.100000)"
fill="#000000" stroke="none">
<path d="M6220 5429 c-187 -91 -233 -111 -350 -150 -113 -37 -341 -97 -450
-118 -30 -6 -66 -13 -80 -16 -25 -5 -192 -34 -240 -41 -22 -3 -84 -11 -216
-29 -23 -3 -61 -8 -85 -10 -24 -2 -64 -7 -89 -10 -125 -14 -313 -30 -472 -40
-319 -21 -541 -28 -850 -29 -157 -1 -285 -2 -284 -4 6 -5 183 -20 326 -28 479
-25 1201 -24 1510 1 30 2 89 7 130 10 131 9 194 15 231 20 20 3 54 7 75 10 74
8 120 14 239 35 66 12 133 24 149 27 16 2 60 13 98 22 37 10 68 15 68 13 0 -6
-70 -160 -135 -297 -31 -66 -71 -149 -87 -185 -41 -89 -321 -649 -362 -724
-60 -111 -277 -501 -286 -516 -5 -8 -55 -91 -111 -185 -310 -518 -707 -1059
-979 -1336 -128 -130 -408 -359 -439 -359 -6 0 -11 -4 -11 -10 0 -5 -5 -10
-11 -10 -6 0 -29 -13 -52 -29 -42 -29 -225 -123 -302 -156 -131 -55 -349 -124
-446 -140 -19 -3 -56 -10 -84 -15 -229 -45 -570 -55 -840 -25 -66 7 -151 17
-170 21 -10 2 -37 6 -60 9 -22 3 -60 10 -85 15 -25 5 -85 16 -135 25 -319 58
-585 160 -802 305 -173 117 -255 216 -308 371 -91 270 14 607 304 973 238 301
621 526 862 507 27 -2 68 -51 80 -95 14 -52 12 -171 -6 -321 -2 -22 -7 -71
-10 -110 -3 -38 -8 -86 -10 -105 -3 -19 -7 -62 -11 -95 -3 -33 -8 -73 -10 -90
-3 -16 -6 -47 -9 -67 -2 -21 -6 -50 -9 -65 -3 -15 -8 -46 -11 -68 -2 -22 -7
-50 -9 -62 -3 -12 -7 -48 -11 -79 -3 -32 -8 -60 -10 -63 -2 -4 -6 -27 -10 -51
-5 -41 -18 -113 -31 -180 l-5 -25 18 22 c10 11 67 86 128 165 60 78 119 154
130 167 171 202 371 387 553 509 l62 43 1 -38 c0 -21 2 -47 5 -58 3 -18 17
-344 18 -442 0 -24 5 -43 10 -43 5 0 95 85 200 189 231 229 337 328 425 396
14 11 28 23 29 27 2 5 8 8 14 8 10 0 5 -58 -12 -135 -26 -121 -33 -306 -14
-375 l12 -45 1 55 c2 75 9 120 32 220 11 47 22 92 24 100 15 71 44 167 85 285
27 76 47 141 45 144 -3 2 -13 -3 -22 -11 -10 -8 -45 -29 -78 -48 -52 -28 -220
-137 -250 -162 -5 -5 -32 -25 -60 -46 -27 -20 -59 -46 -71 -57 -12 -11 -43
-38 -69 -60 -26 -22 -72 -63 -101 -92 l-53 -52 1 142 c0 78 -3 187 -7 242 -4
55 -8 117 -9 138 0 23 -5 36 -11 33 -22 -8 -252 -162 -327 -219 -109 -82 -256
-213 -353 -314 l-85 -88 6 55 c10 92 12 127 19 335 4 110 8 224 9 253 8 174
-56 311 -167 357 -39 16 -144 21 -202 10 -78 -16 -120 -27 -181 -50 -314 -118
-619 -379 -836 -715 -238 -367 -294 -677 -179 -977 60 -156 160 -275 333 -400
119 -86 241 -153 423 -233 115 -50 426 -136 605 -166 14 -2 36 -7 50 -10 14
-3 43 -8 65 -10 22 -3 47 -7 55 -9 8 -2 38 -7 65 -10 28 -4 61 -8 74 -10 171
-28 655 -28 841 1 430 65 788 201 1124 426 201 135 436 345 586 523 23 28 52
61 64 75 80 90 368 479 504 682 70 104 277 432 313 496 11 17 27 47 38 65 341
589 648 1214 1005 2047 83 194 103 238 124 283 5 10 6 11 -108 -44z"/>
</g>
</svg>
